<svg xmlns="http://www.w3.org/2000/svg" width="1200" height="800" viewBox="0 0 1200 800">
  <defs>
    <linearGradient id="bg" x1="0" x2="0" y1="0" y2="1">
      <stop offset="0%" stop-color="#f8fafc"/>
      <stop offset="100%" stop-color="#eef2f7"/>
    </linearGradient>
  </defs>
  <rect width="1200" height="800" fill="url(#bg)"/>
  <!-- Top navbar -->
  <rect x="0" y="0" width="1200" height="72" fill="#0f172a"/>
  <rect x="40" y="24" width="160" height="24" rx="6" fill="#e2e8f0"/>
  <rect x="960" y="20" width="200" height="32" rx="8" fill="#1e293b"/>

  <!-- Filters sidebar -->
  <rect x="40" y="112" width="220" height="560" rx="14" fill="#ffffff" stroke="#e2e8f0"/>
  <rect x="60" y="140" width="160" height="16" rx="4" fill="#64748b" opacity="0.7"/>
  <rect x="60" y="170" width="180" height="10" rx="4" fill="#cbd5e1"/>
  <rect x="60" y="200" width="140" height="10" rx="4" fill="#cbd5e1"/>
  <rect x="60" y="240" width="160" height="16" rx="4" fill="#64748b" opacity="0.7"/>
  <rect x="60" y="270" width="180" height="10" rx="4" fill="#cbd5e1"/>
  <rect x="60" y="300" width="120" height="10" rx="4" fill="#cbd5e1"/>

  <!-- Product grid -->
  <g transform="translate(300,112)">
    <!-- 6 product cards -->
    <g id="card">
      <rect width="260" height="260" rx="18" fill="#ffffff" stroke="#e2e8f0"/>
      <rect x="0" y="0" width="260" height="150" rx="18" fill="#e2e8f0"/>
      <rect x="16" y="170" width="140" height="14" rx="4" fill="#334155" opacity="0.8"/>
      <rect x="16" y="192" width="200" height="10" rx="4" fill="#94a3b8"/>
      <rect x="16" y="216" width="80" height="16" rx="8" fill="#16a34a"/>
      <rect x="108" y="216" width="60" height="16" rx="8" fill="#0ea5e9"/>
    </g>
    <use href="#card" x="0" y="0"/>
    <use href="#card" x="284" y="0"/>
    <use href="#card" x="568" y="0"/>
    <use href="#card" x="0" y="284"/>
    <use href="#card" x="284" y="284"/>
    <use href="#card" x="568" y="284"/>
  </g>
</svg>

