<svg xmlns="http://www.w3.org/2000/svg" width="1200" height="800" viewBox="0 0 1200 800">
  <rect width="1200" height="800" fill="#f1f5f9"/>
  <!-- Phone frame -->
  <rect x="420" y="80" width="360" height="640" rx="40" fill="#111827"/>
  <rect x="430" y="140" width="340" height="560" rx="28" fill="#ffffff"/>
  <rect x="550" y="96" width="100" height="8" rx="4" fill="#374151"/>
  <circle cx="640" cy="120" r="6" fill="#374151"/>
  <!-- Header -->
  <rect x="430" y="140" width="340" height="56" rx="28" fill="#0ea5e9"/>
  <rect x="450" y="160" width="200" height="16" rx="6" fill="#ffffff"/>
  <!-- List items -->
  <g transform="translate(446,214)">
    <g id="item">
      <rect x="0" y="0" width="308" height="88" rx="14" fill="#f8fafc" stroke="#e2e8f0"/>
      <circle cx="40" cy="44" r="24" fill="#e2e8f0"/>
      <rect x="80" y="26" width="160" height="12" rx="4" fill="#0f172a" opacity="0.8"/>
      <rect x="80" y="46" width="120" height="10" rx="4" fill="#64748b"/>
      <rect x="250" y="34" width="42" height="18" rx="9" fill="#16a34a"/>
    </g>
    <use href="#item" x="0" y="0"/>
    <use href="#item" x="0" y="104"/>
    <use href="#item" x="0" y="208"/>
    <use href="#item" x="0" y="312"/>
  </g>
</svg>

