<svg xmlns="http://www.w3.org/2000/svg" width="1200" height="800" viewBox="0 0 1200 800">
  <rect width="1200" height="800" fill="#eff4f9"/>
  <!-- Sidebar -->
  <rect x="40" y="60" width="200" height="680" rx="16" fill="#0f172a"/>
  <rect x="60" y="88" width="160" height="16" rx="6" fill="#94a3b8"/>
  <rect x="60" y="120" width="140" height="12" rx="6" fill="#475569"/>
  <rect x="60" y="148" width="120" height="12" rx="6" fill="#475569"/>
  <rect x="60" y="176" width="100" height="12" rx="6" fill="#475569"/>
  <!-- Top bar -->
  <rect x="260" y="60" width="900" height="64" rx="12" fill="#ffffff" stroke="#e2e8f0"/>
  <rect x="280" y="80" width="240" height="16" rx="6" fill="#0f172a" opacity="0.8"/>
  <rect x="980" y="76" width="160" height="24" rx="12" fill="#e2e8f0"/>
  <!-- Cards -->
  <g transform="translate(260,140)">
    <g id="card">
      <rect width="430" height="220" rx="16" fill="#ffffff" stroke="#e2e8f0"/>
      <rect x="20" y="20" width="140" height="12" rx="6" fill="#0f172a" opacity="0.8"/>
      <rect x="20" y="44" width="200" height="10" rx="5" fill="#94a3b8"/>
      <!-- chart -->
      <polyline points="20,180 100,120 180,150 260,90 340,130 410,100" fill="none" stroke="#0ea5e9" stroke-width="4"/>
      <circle cx="100" cy="120" r="4" fill="#0ea5e9"/>
      <circle cx="260" cy="90" r="4" fill="#0ea5e9"/>
    </g>
    <use href="#card"/>
    <use href="#card" x="470"/>
    <use href="#card" y="260"/>
    <use href="#card" x="470" y="260"/>
  </g>
</svg>

