<svg xmlns="http://www.w3.org/2000/svg" width="1200" height="800" viewBox="0 0 1200 800">
  <rect width="1200" height="800" fill="#f8fafc"/>
  <!-- Table container -->
  <rect x="80" y="120" width="1040" height="560" rx="16" fill="#ffffff" stroke="#e2e8f0"/>
  <!-- Header -->
  <rect x="80" y="120" width="1040" height="56" rx="16" fill="#f1f5f9"/>
  <!-- Columns -->
  <g fill="#0f172a" opacity="0.8">
    <rect x="100" y="140" width="120" height="12" rx="6"/>
    <rect x="260" y="140" width="160" height="12" rx="6"/>
    <rect x="460" y="140" width="180" height="12" rx="6"/>
    <rect x="680" y="140" width="140" height="12" rx="6"/>
    <rect x="860" y="140" width="120" height="12" rx="6"/>
  </g>
  <!-- Rows -->
  <g fill="#e2e8f0">
    <rect x="100" y="200" width="1000" height="48" rx="10"/>
    <rect x="100" y="260" width="1000" height="48" rx="10"/>
    <rect x="100" y="320" width="1000" height="48" rx="10"/>
    <rect x="100" y="380" width="1000" height="48" rx="10"/>
    <rect x="100" y="440" width="1000" height="48" rx="10"/>
    <rect x="100" y="500" width="1000" height="48" rx="10"/>
  </g>
</svg>

