<svg width="1200" height="720" viewBox="0 0 1200 720" fill="none" xmlns="http://www.w3.org/2000/svg">
  <rect width="1200" height="720" rx="32" fill="#FFF7F5"/>
  <rect x="64" y="56" width="1072" height="608" rx="28" fill="white" stroke="#FFE4E0" stroke-width="2"/>
  <rect x="112" y="104" width="976" height="128" rx="24" fill="url(#paint0_linear)"/>
  <rect x="144" y="140" width="220" height="52" rx="14" fill="white"/>
  <rect x="384" y="140" width="116" height="52" rx="14" fill="white" fill-opacity="0.8"/>
  <rect x="520" y="140" width="116" height="52" rx="14" fill="white" fill-opacity="0.8"/>
  <rect x="656" y="140" width="116" height="52" rx="14" fill="white" fill-opacity="0.8"/>
  <rect x="960" y="140" width="100" height="52" rx="14" fill="#F97316"/>
  <rect x="112" y="256" width="528" height="344" rx="26" fill="#FFF1EA"/>
  <rect x="144" y="292" width="464" height="208" rx="24" fill="url(#paint1_linear)"/>
  <rect x="144" y="516" width="248" height="16" rx="8" fill="#F97316" fill-opacity="0.35"/>
  <rect x="144" y="544" width="316" height="12" rx="6" fill="#FB923C" fill-opacity="0.3"/>
  <rect x="144" y="572" width="220" height="12" rx="6" fill="#FDBA74" fill-opacity="0.3"/>
  <rect x="672" y="256" width="416" height="344" rx="26" fill="#F5F3FF"/>
  <g opacity="0.95">
    <rect x="704" y="288" width="168" height="208" rx="20" fill="white" stroke="#E9D5FF"/>
    <rect x="704" y="288" width="168" height="148" rx="20" fill="url(#paint2_linear)"/>
    <rect x="720" y="460" width="128" height="12" rx="6" fill="#A855F7"/>
    <rect x="720" y="484" width="96" height="12" rx="6" fill="#DDD6FE"/>
  </g>
  <g opacity="0.95">
    <rect x="904" y="288" width="152" height="208" rx="20" fill="white" stroke="#FFE4E0"/>
    <rect x="904" y="288" width="152" height="148" rx="20" fill="url(#paint3_linear)"/>
    <rect x="920" y="460" width="120" height="12" rx="6" fill="#F97316"/>
    <rect x="920" y="484" width="88" height="12" rx="6" fill="#FED7AA"/>
  </g>
  <rect x="704" y="520" width="240" height="16" rx="8" fill="#EDE9FE"/>
  <rect x="704" y="548" width="304" height="12" rx="6" fill="#F3F4FF"/>
  <rect x="704" y="576" width="200" height="12" rx="6" fill="#F3F4FF"/>
  <defs>
    <linearGradient id="paint0_linear" x1="112" y1="104" x2="1088" y2="232" gradientUnits="userSpaceOnUse">
      <stop stop-color="#F97316"/>
      <stop offset="1" stop-color="#F9739B"/>
    </linearGradient>
    <linearGradient id="paint1_linear" x1="144" y1="292" x2="608" y2="500" gradientUnits="userSpaceOnUse">
      <stop stop-color="#FED7AA"/>
      <stop offset="1" stop-color="#F9739B"/>
    </linearGradient>
    <linearGradient id="paint2_linear" x1="704" y1="288" x2="872" y2="428" gradientUnits="userSpaceOnUse">
      <stop stop-color="#FCE7F3"/>
      <stop offset="1" stop-color="#818CF8"/>
    </linearGradient>
    <linearGradient id="paint3_linear" x1="904" y1="288" x2="1056" y2="428" gradientUnits="userSpaceOnUse">
      <stop stop-color="#FEE2E2"/>
      <stop offset="1" stop-color="#FDBA74"/>
    </linearGradient>
  </defs>
</svg>
