<svg width="1200" height="720" viewBox="0 0 1200 720" fill="none" xmlns="http://www.w3.org/2000/svg">
  <rect width="1200" height="720" rx="32" fill="#F8F5FF"/>
  <rect x="64" y="56" width="1072" height="608" rx="28" fill="white" stroke="#E5E1F8" stroke-width="2"/>
  <rect x="112" y="112" width="976" height="120" rx="20" fill="url(#paint0_linear)"/>
  <rect x="144" y="148" width="200" height="48" rx="12" fill="white" fill-opacity="0.9"/>
  <rect x="360" y="148" width="96" height="48" rx="12" fill="white" fill-opacity="0.75"/>
  <rect x="472" y="148" width="96" height="48" rx="12" fill="white" fill-opacity="0.75"/>
  <rect x="584" y="148" width="96" height="48" rx="12" fill="white" fill-opacity="0.75"/>
  <rect x="1080" y="148" width="80" height="48" rx="12" fill="#F472B6"/>
  <rect x="112" y="256" width="456" height="344" rx="24" fill="#FDF2F8"/>
  <rect x="144" y="288" width="392" height="200" rx="20" fill="url(#paint1_linear)"/>
  <rect x="144" y="512" width="212" height="16" rx="8" fill="#EC4899" fill-opacity="0.35"/>
  <rect x="144" y="540" width="280" height="12" rx="6" fill="#EC4899" fill-opacity="0.25"/>
  <rect x="144" y="568" width="180" height="12" rx="6" fill="#EC4899" fill-opacity="0.15"/>
  <rect x="600" y="256" width="488" height="344" rx="24" fill="#F5F3FF"/>
  <g opacity="0.95">
    <rect x="632" y="288" width="144" height="196" rx="18" fill="white" stroke="#E0D3FF"/>
    <rect x="632" y="288" width="144" height="144" rx="18" fill="url(#paint2_linear)"/>
    <rect x="648" y="452" width="112" height="12" rx="6" fill="#C084FC"/>
    <rect x="648" y="476" width="72" height="12" rx="6" fill="#DDD6FE"/>
  </g>
  <g opacity="0.95">
    <rect x="800" y="288" width="144" height="196" rx="18" fill="white" stroke="#E0D3FF"/>
    <rect x="800" y="288" width="144" height="144" rx="18" fill="url(#paint3_linear)"/>
    <rect x="816" y="452" width="112" height="12" rx="6" fill="#F472B6"/>
    <rect x="816" y="476" width="72" height="12" rx="6" fill="#FED7E2"/>
  </g>
  <g opacity="0.95">
    <rect x="968" y="288" width="120" height="196" rx="18" fill="white" stroke="#E0D3FF"/>
    <rect x="968" y="288" width="120" height="144" rx="18" fill="url(#paint4_linear)"/>
    <rect x="984" y="452" width="88" height="12" rx="6" fill="#34D399"/>
    <rect x="984" y="476" width="64" height="12" rx="6" fill="#D1FAE5"/>
  </g>
  <rect x="632" y="524" width="200" height="16" rx="8" fill="#DDD6FE"/>
  <rect x="632" y="552" width="280" height="12" rx="6" fill="#EDE9FE"/>
  <rect x="632" y="580" width="176" height="12" rx="6" fill="#EDE9FE"/>
  <defs>
    <linearGradient id="paint0_linear" x1="112" y1="112" x2="1088" y2="232" gradientUnits="userSpaceOnUse">
      <stop stop-color="#F472B6"/>
      <stop offset="1" stop-color="#6366F1"/>
    </linearGradient>
    <linearGradient id="paint1_linear" x1="144" y1="288" x2="520" y2="488" gradientUnits="userSpaceOnUse">
      <stop stop-color="#FBCFE8"/>
      <stop offset="1" stop-color="#C084FC"/>
    </linearGradient>
    <linearGradient id="paint2_linear" x1="632" y1="288" x2="784" y2="432" gradientUnits="userSpaceOnUse">
      <stop stop-color="#FDE68A"/>
      <stop offset="1" stop-color="#FCA5A5"/>
    </linearGradient>
    <linearGradient id="paint3_linear" x1="800" y1="288" x2="952" y2="432" gradientUnits="userSpaceOnUse">
      <stop stop-color="#A5B4FC"/>
      <stop offset="1" stop-color="#FDE68A"/>
    </linearGradient>
    <linearGradient id="paint4_linear" x1="968" y1="288" x2="1088" y2="432" gradientUnits="userSpaceOnUse">
      <stop stop-color="#BBF7D0"/>
      <stop offset="1" stop-color="#86EFAC"/>
    </linearGradient>
  </defs>
</svg>
